<?xml version="1.0" encoding="utf-8"?>
<!-- Generator: Adobe Illustrator 18.1.1, SVG Export Plug-In . SVG Version: 6.00 Build 0)  -->
<svg version="1.1" id="Ebene_1" xmlns="http://www.w3.org/2000/svg" xmlns:xlink="http://www.w3.org/1999/xlink" x="0px" y="0px"
	 viewBox="0 0 256.4 63.8" enable-background="new 0 0 256.4 63.8" xml:space="preserve">
<g>
	<path fill="#FFFFFF" d="M46.2,46c-1.7,0.3-5.8,1.6-13.8,1.6c-9,0-10.8-4.9-10.8-14v-4.3c0-9.4,1.9-13.2,10.7-13.2
		c5.8,0,8.7,0.4,14,1.1V4.4c-2.5-0.5-6.2-1-13.8-1c-17,0-26.2,5.4-26.2,28.2c0,22.8,8.7,28.2,26,28.2c7.6,0,11.4-0.6,14-1.1V46z"/>
	<path fill="#FFFFFF" d="M104.8,4c-3.3,0-5,1-5,5.4v7.2h17.5v42.4h3.3h3.9h1h1.5c3.3,0,5-1,5-5.4v-37l12.6,0c3.3,0,5-1,5-5.4V4
		H104.8z"/>
	<path fill="#FFFFFF" d="M150.8,31.6c0-24.2,10.7-28.4,27.2-28.4c16.5,0,27,4.1,27,28.3c0,24.2-10.6,28.6-27.2,28.6
		C161.4,60,150.8,55.7,150.8,31.6z M189.7,33.7v-4.3c0-10.4-2.6-13.8-11.8-13.8c-9.1,0-11.7,3.3-11.7,13.7v4.3
		c0,10.4,2.7,14.3,11.8,14.3C187.2,47.9,189.7,44.1,189.7,33.7z"/>
	<path fill="#FFFFFF" d="M232.2,25.2c-7.6-1.3-8.7-1.6-8.7-5.3c0-3,1-4.1,6.4-4.1c6.6,0,13.6,1,18.2,1.7V4.8
		c-4.4-0.8-12.9-1.5-18.1-1.5c-13.2,0-21.2,3.7-21.2,16.3c0,12.8,3.5,15.1,19.4,18c8.6,1.6,9.7,1.9,9.7,5.5c0,3.8-1.2,4.6-8.2,4.6
		c-7.6,0-16-1.5-19.6-2.2V58c4.1,0.7,11,2,19.4,1.9c16.5-0.3,23.3-4.2,23.3-16.6C252.8,30.1,249.2,28.3,232.2,25.2z"/>
	<path fill="#FFFFFF" d="M94.6,45.2c-1.7,0.3-10.5,2.4-18.5,2.4c-7.8,0-10.2-3.6-10.7-10.5h14.3l0,0h0.5c3.3,0,5-1,5-5.4v-0.6h0
		v-5.2H65.4C65.9,18.9,68.3,16,76,16c7.8,0,13.3,1.3,18.7,2.2V5.4c-3.7-0.8-10.3-2.1-18.5-2.1c-17,0-26.2,5.4-26.2,28.2
		c0,22.8,8.7,28.2,26,28.2c9.1,0,15.2-1.2,18.7-1.9V45.2z"/>
</g>
</svg>
